<svg width="33" height="32" viewBox="0 0 33 32" fill="none" xmlns="http://www.w3.org/2000/svg">
<path d="M2 6.10861C2.55725 5.57063 3.16184 5.12773 3.80003 4.69315C4.81761 4.00021 5.58686 3.24542 6.7839 2.83019C6.97412 2.76421 9.59111 1.82905 9.69014 2.02761C9.78336 2.21453 8.89977 3.23805 8.85077 3.30201C8.21622 4.13035 7.50817 4.86952 6.75479 5.58815C5.48246 6.80178 4.45741 8.18134 3.3197 9.51349C3.17182 9.68664 2.81727 9.98903 2.76659 10.2431C2.70105 10.5716 3.37845 9.97081 3.66903 9.80534C6.47272 8.20872 9.46557 7.03465 12.378 5.66597C12.9415 5.40119 12.9923 5.37207 13.1398 4.84394C13.2539 4.4354 13.4563 4.3544 13.0622 4.94122C11.9577 6.58561 10.6116 7.98167 9.21951 9.37729C7.84197 10.7583 6.47606 11.9888 5.82324 13.8815C5.73685 14.1319 5.52217 14.8751 5.68738 15.1753C5.84469 15.4612 8.28003 13.2167 8.385 13.1275C10.2266 11.5624 12.0562 9.98434 13.8384 8.35096C15.0942 7.20009 16.2803 5.96674 17.6326 4.92663C18.8261 4.00864 20.1122 3.07134 21.4946 2.45079C21.5985 2.40414 22.5404 1.88543 22.5911 2.03248C22.648 2.19729 22.4723 2.61059 22.431 2.71832C22.0303 3.76282 21.3432 4.65035 20.5873 5.46168C18.0698 8.16403 15.1981 10.312 12.2568 12.5001C10.58 13.7473 8.73743 15.0653 7.35156 16.6491C6.63598 17.467 6.06451 18.4967 5.53698 19.4411C5.35051 19.775 5.40598 20.1446 5.40598 20.5161C5.40598 20.7755 5.40598 21.035 5.40598 21.2944C5.40598 21.5885 5.31549 21.8319 5.67768 21.5716C7.26152 20.4337 8.80518 19.233 10.3742 18.0743C13.9529 15.4316 17.0996 12.2732 20.597 9.53294C21.0749 9.15856 21.5775 8.80462 22.1157 8.52121C22.2137 8.46958 22.4943 8.38259 22.4456 8.4823C22.3423 8.69382 21.6858 9.46038 21.6402 9.51349C20.0732 11.3371 18.444 13.1242 16.6234 14.6986C14.9493 16.1464 13.0854 17.3187 11.3543 18.6872C9.49707 20.1555 7.4859 21.7439 6.04642 23.6437C5.75721 24.0254 5.40598 24.466 5.40598 24.9717C5.40598 25.4835 5.22158 25.9849 5.03724 26.4601C4.90317 26.8057 4.71249 27.1473 4.53265 27.4718C4.5028 27.5257 4.42203 27.645 4.44532 27.715C4.46318 27.7687 4.55976 27.6861 4.60058 27.6469C4.88019 27.3787 5.34854 26.8274 5.55153 26.5963C8.69853 23.0124 12.0848 19.9108 16.0703 17.2766C19.2456 15.1779 22.5039 13.2801 25.3373 10.7149C26.9202 9.28189 28.4172 7.77982 30.1309 6.49774C30.2391 6.41678 30.7442 5.95222 30.9557 5.97241C30.9995 5.97659 31.0072 6.05664 30.9945 6.09888C30.8901 6.44656 30.5484 7.03259 30.4123 7.25654C25.5927 15.1866 17.0072 19.2996 9.5931 24.3539C7.87506 25.5251 6.27065 26.7352 5.90086 28.8921C5.90086 28.8921 5.75083 29.9448 5.77957 29.9476C5.9274 29.9625 6.29692 29.658 6.36664 29.612C7.45726 28.8935 8.59185 28.2551 9.7144 27.5885C13.9251 25.0885 18.2188 22.6081 22.0962 19.6017C23.5567 18.4692 24.8094 17.1574 26.4386 16.3135C26.6475 16.2053 27.0995 15.7748 27.1518 16.2162C27.3834 18.1705 25.333 19.9371 24.0564 21.0998C22.3776 22.6288 20.4157 23.6823 18.5787 24.9862C17.7068 25.6051 16.7257 26.3731 16.3226 27.4037C16.1966 27.7259 16.0493 28.1054 15.9878 28.4446C15.9832 28.4699 16.1864 28.2264 16.1916 28.2209C16.8155 27.5563 17.5308 26.9784 18.2633 26.4406C20.3664 24.8966 22.555 23.4642 24.7162 22.0045C26.3972 20.8692 28.0635 19.7236 29.83 18.7261C29.8717 18.7026 30.269 18.3446 30.257 18.5899C30.2355 19.0274 29.9921 19.4397 29.7621 19.7962C28.4955 21.7597 26.8137 23.4863 25.2257 25.1857C24.8924 25.5423 24.7109 25.8004 24.4882 26.2023C24.3188 26.508 24.2934 26.7892 24.0273 27.0827C23.3169 27.866 22.251 28.3266 21.383 28.9067C21.3035 28.9599 21.164 28.9733 21.1453 29.0672C21.1347 29.1205 21.2516 29.0421 21.3005 29.0186C21.5653 28.8914 22.0017 28.6449 22.2224 28.5225C24.0669 27.4994 25.7533 26.5313 27.8408 26.1488C27.8908 26.1396 28.3952 25.9977 28.4861 26.1099C28.7008 26.3747 28.3461 26.9987 28.2144 27.1946C27.4679 28.3046 26.3391 29.1249 25.1917 29.7677C24.6674 30.0614 26.9427 29.9943 27.0548 29.9914C28.1149 29.9639 29.1749 29.8998 30.2085 29.6607" stroke="black" stroke-width="3" stroke-linecap="round"/>
</svg>
