<svg id="Capa_1" enable-background="new 0 0 497 497" height="512" viewBox="0 0 497 497" width="512" xmlns="http://www.w3.org/2000/svg"><g><path d="m321.204 55.586h-260.378c-33.593 0-60.826 27.233-60.826 60.826v304.995c0 33.593 27.233 60.826 60.826 60.826h260.378c33.593 0 60.826-27.233 60.826-60.826v-304.995c0-33.593-27.233-60.826-60.826-60.826z" fill="#59c2e7"/><path d="m61.36 222.111c0-62.662 21.719-120.392 58.23-166.524h-58.764c-33.593-.001-60.826 27.232-60.826 60.825v304.995c0 33.593 27.233 60.826 60.826 60.826h101.841c-66.373-51.371-101.307-139.036-101.307-260.122z" fill="#34b5e1"/><path d="m64.577 431.888c-8.201 0-14.874-6.673-14.874-14.875v-296.207c0-8.202 6.673-14.875 14.874-14.875h252.876c8.202 0 14.874 6.673 14.874 14.875v296.207c0 8.202-6.672 14.875-14.874 14.875z" fill="#fff"/><path d="m271.234 35.016h-46.492c-1.047-17.721-15.744-31.77-33.728-31.77s-32.681 14.049-33.728 31.77h-46.492c-13.644 0-24.704 11.06-24.704 24.704v33.197c0 13.644 11.06 24.704 24.704 24.704h160.439c13.644 0 24.704-11.06 24.704-24.704v-33.197c.001-13.644-11.059-24.704-24.703-24.704z" fill="#c7c5cb"/><circle cx="191.015" cy="33.586" fill="#a19dae" r="8.38"/><g><path d="m241.195 84.414h-100.36c-4.142 0-7.5-3.358-7.5-7.5s3.358-7.5 7.5-7.5h100.359c4.142 0 7.5 3.358 7.5 7.5s-3.357 7.5-7.499 7.5z" fill="#a19dae"/></g><ellipse cx="396.009" cy="264.796" fill="#00cd8c" rx="55.579" ry="35.514" transform="matrix(.707 -.707 .707 .707 -71.251 357.578)"/><ellipse cx="333.878" cy="264.796" fill="#60d9a7" rx="35.514" ry="55.579" transform="matrix(.707 -.707 .707 .707 -89.449 313.645)"/><g><path d="m263.568 334.512h-76.333c-4.142 0-7.5-3.358-7.5-7.5s3.358-7.5 7.5-7.5h76.333c4.142 0 7.5 3.358 7.5 7.5s-3.358 7.5-7.5 7.5z" fill="#423e4f"/></g><path d="m365.965 485.481c.314.171.627.339.94.505 23.922 12.653 53.105 9.533 74.497-7.041 106.484-82.503 48.458-244.192-76.458-191.447-124.916-52.744-182.942 108.944-76.458 191.447 21.392 16.574 50.576 19.694 74.497 7.041.313-.165.626-.334.94-.505.635-.347 1.406-.347 2.042 0z" fill="#ff889e"/><g><g><path d="m290.163 387.821c-4.142 0-7.5-3.358-7.5-7.5v-14.37c0-4.142 3.358-7.5 7.5-7.5s7.5 3.358 7.5 7.5v14.37c0 4.142-3.358 7.5-7.5 7.5z" fill="#423e4f"/></g><g><path d="m439.724 387.821c-4.142 0-7.5-3.358-7.5-7.5v-14.37c0-4.142 3.358-7.5 7.5-7.5s7.5 3.358 7.5 7.5v14.37c0 4.142-3.358 7.5-7.5 7.5z" fill="#423e4f"/></g><g><path d="m364.944 396.375c-9.724 0-18.971-4.211-25.37-11.554-2.721-3.123-2.396-7.86.727-10.582 3.123-2.721 7.859-2.396 10.582.727 3.55 4.073 8.675 6.409 14.062 6.409 5.386 0 10.511-2.336 14.061-6.409 2.721-3.124 7.459-3.448 10.582-.727s3.448 7.459.727 10.582c-6.401 7.343-15.648 11.554-25.371 11.554z" fill="#423e4f"/></g></g><g><path d="m98.402 200.63v-21.579c0-4.142 3.358-7.5 7.5-7.5s7.5 3.358 7.5 7.5v9.304l31.157-15.978c3.686-1.891 8.206-.434 10.096 3.251 1.89 3.686.434 8.206-3.251 10.096l-42.08 21.579c-4.981 2.556-10.922-1.067-10.922-6.673z" fill="#423e4f"/></g><g><path d="m253.454 197.34h-66.22c-4.142 0-7.5-3.358-7.5-7.5s3.358-7.5 7.5-7.5h66.22c4.142 0 7.5 3.358 7.5 7.5s-3.358 7.5-7.5 7.5z" fill="#423e4f"/></g><g><path d="m98.402 269.216v-21.579c0-4.142 3.358-7.5 7.5-7.5s7.5 3.358 7.5 7.5v9.304l31.157-15.978c3.684-1.89 8.206-.435 10.096 3.251s.434 8.206-3.251 10.096l-42.08 21.579c-4.981 2.556-10.922-1.067-10.922-6.673z" fill="#423e4f"/></g><g><path d="m253.454 265.926h-66.22c-4.142 0-7.5-3.358-7.5-7.5s3.358-7.5 7.5-7.5h66.22c4.142 0 7.5 3.358 7.5 7.5s-3.358 7.5-7.5 7.5z" fill="#423e4f"/></g><g><path d="m98.402 337.802v-21.579c0-4.142 3.358-7.5 7.5-7.5s7.5 3.358 7.5 7.5v9.304l31.157-15.978c3.686-1.891 8.206-.434 10.096 3.251 1.89 3.686.434 8.206-3.251 10.096l-42.08 21.579c-4.943 2.536-10.922-1.022-10.922-6.673z" fill="#423e4f"/></g><path d="m61.36 222.111c0-41.541 9.556-80.911 26.624-116.179h-23.407c-8.201 0-14.874 6.672-14.874 14.875v296.207c0 8.202 6.673 14.875 14.874 14.875h50.703c-35.491-51.582-53.92-121.864-53.92-209.778z" fill="#e5e5e5"/><path d="m272.068 372.42c0-37.646 10.047-71.448 35.264-94.648-82.314 9.855-107.161 132.746-18.846 201.172 19.33 14.977 45.02 18.964 67.443 10.259-49.27-19.183-83.861-64.247-83.861-116.783z" fill="#ff748f"/></g></svg>