<svg width="80" height="80" viewBox="0 0 80 80" fill="none" xmlns="http://www.w3.org/2000/svg">
<circle cx="40" cy="40" r="40" fill="white" fill-opacity="0.6"/>
<path d="M14.8118 43.1759L37.6293 61.4596C39.4289 62.9017 42.3017 62.8465 44.0446 61.3364C45.7875 59.8263 45.7416 57.4323 43.9419 55.9903L24.3856 40.3199L43.3257 23.9101C45.0687 22.4 45.0227 20.006 43.223 18.564C41.4234 17.1219 38.5506 17.1771 36.8077 18.6872L14.7092 37.8335C12.9662 39.34 13.0122 41.7339 14.8118 43.1759ZM41.8367 43.7905L59.9672 59.1079C61.789 60.6451 64.6908 60.5893 66.4522 58.9834C68.2136 57.3774 68.1647 54.8279 66.3429 53.2889L51.5084 40.7565L65.8507 27.6637C67.6121 26.0576 67.5631 23.5064 65.7413 21.9692C63.9195 20.4319 61.0177 20.4877 59.2563 22.0937L41.7273 38.096C39.9659 39.702 40.0149 42.2515 41.8367 43.7905Z" fill="#FFAA5A"/>
</svg>
