<svg width="16" height="4" viewBox="0 0 16 4" fill="none" xmlns="http://www.w3.org/2000/svg">
<path d="M16 2.00001C16 2.85049 15.3463 3.40742 14.6667 3.40742H9.23078H8.79938C8.71078 3.40742 8.67961 3.40742 8 3.40742C7.32039 3.40742 7.24879 3.40742 7.16941 3.40742H6.76924H1.23079C0.551175 3.40742 0 2.85049 0 2.00001C0 1.14953 0.551175 0.296304 1.23079 0.296304H6.76924L7.16941 0.296311C7.30057 0.296311 7.32039 0.296311 8 0.296311C8.67961 0.296311 8.63236 0.29628 8.63236 0.29628L9.23078 0.296304H14.6667C15.3474 0.295823 16 1.14905 16 2.00001Z" fill="white"/>
</svg>
