<svg width="20" height="20" viewBox="0 0 20 20" fill="none" xmlns="http://www.w3.org/2000/svg">
<rect width="20" height="20" rx="3" fill="#E5A8A8"/>
<path d="M18 10C18 10.8505 17.3463 11.4074 16.6667 11.4074H11.2308H10.7994C10.7108 11.4074 10.6796 11.4074 10 11.4074C9.32039 11.4074 9.24879 11.4074 9.16941 11.4074H8.76924H3.23079C2.55118 11.4074 2 10.8505 2 10C2 9.14953 2.55118 8.2963 3.23079 8.2963H8.76924L9.16941 8.29631C9.30057 8.29631 9.32039 8.29631 10 8.29631C10.6796 8.29631 10.6324 8.29628 10.6324 8.29628L11.2308 8.2963H16.6667C17.3474 8.29582 18 9.14905 18 10Z" fill="white"/>
</svg>
