<svg width="16" height="18" viewBox="0 0 16 18" fill="none" xmlns="http://www.w3.org/2000/svg">
<path d="M16 9C16 9.76543 15.3463 10.2667 14.6667 10.2667H9.23078V16.6158C9.23078 17.3813 8.67963 18 8.00001 18C7.3204 18 6.76924 17.3813 6.76924 16.6158V10.2667H1.23079C0.551175 10.2667 0 9.76543 0 9C0 8.23457 0.551175 7.46667 1.23079 7.46667H6.76924V1.38505C6.76924 0.619616 7.3204 0 8.00001 0C8.67963 0 9.23078 0.619616 9.23078 1.38505V7.46667H14.6667C15.3474 7.46623 16 8.23413 16 9Z" fill="#B1B1B1" fill-opacity="0.5"/>
</svg>
