<svg width="80" height="80" viewBox="0 0 80 80" fill="none" xmlns="http://www.w3.org/2000/svg">
<circle cx="40" cy="40" r="40" fill="white" fill-opacity="0.6"/>
<path d="M67.6713 37.8258L45.2092 19.1073C43.4375 17.6309 40.5643 17.6309 38.7926 19.1073C37.021 20.5836 37.021 22.978 38.7926 24.4544L58.0444 40.4975L38.7926 56.5405C37.021 58.0168 37.021 60.4112 38.7926 61.8876C40.5643 63.3639 43.4375 63.3639 45.2092 61.8876L67.6713 43.1691C69.4429 41.6965 69.4429 39.3021 67.6713 37.8258ZM40.6632 36.6923L22.8302 21.0296C21.0383 19.4577 18.1358 19.4577 16.3439 21.0296C14.552 22.6014 14.552 25.1513 16.3439 26.7251L30.935 39.5401L16.3439 52.355C14.552 53.9269 14.552 56.4786 16.3439 58.0506C18.1358 59.6225 21.0383 59.6225 22.8302 58.0506L40.6632 42.3878C42.4551 40.816 42.4551 38.2661 40.6632 36.6923Z" fill="#FFAA5A"/>
</svg>
