<?xml version="1.0"?>
<svg xmlns="http://www.w3.org/2000/svg" xmlns:xlink="http://www.w3.org/1999/xlink" xmlns:svgjs="http://svgjs.com/svgjs" version="1.1" width="512" height="512" x="0" y="0" viewBox="0 0 512 512" style="enable-background:new 0 0 512 512" xml:space="preserve" class=""><g><g xmlns="http://www.w3.org/2000/svg"><path d="m306.479 57.69-138.044 10.302v30.905l138.044 10.302 12.685-22.987z" fill="#ffc263" data-original="#ffc263" style="" class=""/><path d="m337.384 67.992v30.905l-15.452 10.302-15.453-10.302v-30.905l15.453-10.302z" fill="#ffaa5a" data-original="#ffaa5a" style="" class=""/><path d="m339.96 490.366h-202.946c-19.913 0-36.056-16.143-36.056-36.056l40.771-137.345-40.771-151.105v-30.905c0-19.913 16.143-36.056 36.056-36.056h202.946c19.913 0 36.056 16.143 36.056 36.056v319.355c0 19.913-16.143 36.056-36.056 36.056z" fill="#ffe077" data-original="#ffe077" style="" class=""/><path d="m404.861 134.954v30.905l-16.483 135.987 16.483 121.558v30.905c0 19.913-16.143 36.056-36.056 36.056h-30.905c19.913 0 36.056-16.143 36.056-36.056v-30.905l14.423-98.881-14.423-158.664v-30.905c0-19.913-16.143-36.056-36.056-36.056h30.905c19.913-.001 36.056 16.142 36.056 36.056z" fill="#ffd05b" data-original="#ffd05b" style=""/><path d="m404.861 423.404h-303.903v-257.545h275.058z" fill="#fcf1f2" data-original="#fcf1f2" style="" class=""/><path d="m373.956 165.859h30.905v257.545h-30.905z" fill="#f4e5e0" data-original="#f4e5e0" style=""/><path d="m265.787 338.414h-25.755c-17.069 0-30.905-13.837-30.905-30.905v-25.755c0-17.069 13.837-30.905 30.905-30.905h25.755c17.069 0 30.905 13.837 30.905 30.905v25.755c0 17.069-13.837 30.905-30.905 30.905z" fill="#f4e5e0" data-original="#f4e5e0" style=""/><path d="m42.395 197.795h13.062c33.664 0 60.954 27.29 60.954 60.954v17.415h-17.416c-33.664 0-60.954-27.29-60.954-60.954v-13.062c0-2.404 1.949-4.353 4.354-4.353z" fill="#baf39a" data-original="#baf39a" style="" class=""/><path d="m174.012 202.673c-4.961 0-11.047-3.168-11.047-3.168-26.714 6.47-46.554 30.54-46.554 59.243v17.415h4.044c33.664 0 53.722-27.29 53.722-60.954z" fill="#9ae59c" data-original="#9ae59c" style="" class=""/><path d="m194.776 202.152v13.063c0 33.656-27.289 60.946-60.946 60.946h-17.42v-1.494c27.166-6.14 47.46-30.432 47.46-59.452v-13.063c0-.999-.33-1.916-.907-2.648 4.615-1.113 9.436-1.71 14.402-1.71h13.063c2.401.001 4.348 1.948 4.348 4.358z" fill="#80cf80" data-original="#80cf80" style="" class=""/><path d="m118.809 487.735c-5.239 0-12.796 2.285-17.852 1.614-56.986-7.558-100.957-56.341-100.957-115.393 0-59.053 43.971-107.835 100.957-115.394 5.056-.671 11.32 1.119 16.559 1.119 64.292 0 105.003 49.983 105.003 114.275 0 64.291-39.418 113.779-103.71 113.779z" fill="#ffc263" data-original="#ffc263" style="" class=""/><path d="m232.821 373.956c0 32.142-13.032 61.255-34.099 82.311-21.057 21.067-50.17 34.099-82.311 34.099-5.244 0-10.395-.35-15.453-1.02 25.971-3.441 49.232-15.442 66.859-33.079 21.067-21.057 34.099-50.17 34.099-82.311s-13.032-61.255-34.099-82.312c-17.626-17.637-40.888-29.638-66.859-33.079 5.058-.67 10.209-1.02 15.453-1.02 32.142 0 61.255 13.032 82.311 34.099 21.067 21.057 34.099 50.17 34.099 82.312z" fill="#ffaa5a" data-original="#ffaa5a" style="" class=""/><path d="m320.901 21.634h-165.859c-5.69 0-10.302 4.612-10.302 10.302v25.754c0 5.69 4.612 10.302 10.302 10.302h165.859c5.69 0 10.302-4.612 10.302-10.302v-25.754c0-5.69-4.612-10.302-10.302-10.302z" fill="#736572" data-original="#736572" style="" class=""/><path d="m361.078 31.936v25.754c0 5.687-4.615 10.302-10.302 10.302h-30.905c5.687 0 10.302-4.615 10.302-10.302v-25.754c0-5.687-4.615-10.302-10.302-10.302h30.905c5.687 0 10.302 4.615 10.302 10.302z" fill="#615260" data-original="#615260" style=""/><path d="m30.905 373.956c0-23.612 9.57-44.988 25.044-60.461 10.52-10.52 23.775-18.315 38.608-22.22 3.241-.853 6.401 1.646 6.401 4.998v155.367c0 3.351-3.16 5.851-6.401 4.998-14.833-3.905-28.088-11.699-38.608-22.22-15.473-15.474-25.044-36.851-25.044-60.462z" fill="#ffe077" data-original="#ffe077" style="" class=""/><path d="m201.915 373.956c0-23.612-9.57-44.988-25.044-60.461-10.52-10.52-23.775-18.315-38.608-22.22-3.241-.853-6.401 1.646-6.401 4.998v155.367c0 3.351 3.16 5.851 6.401 4.998 14.833-3.905 28.088-11.699 38.608-22.22 15.474-15.474 25.044-36.851 25.044-60.462z" fill="#ffe077" data-original="#ffe077" style="" class=""/><path d="m367.775 485.215c-5.334 0-10.51 4.475-15.448 3.205-26.662-6.86-46.363-31.062-46.363-59.865 0-28.801 19.699-53.002 46.358-59.864 4.939-1.271 10.117 3.204 15.453 3.204 34.137 0 51.509 22.523 51.509 56.66 0 34.138-17.372 56.66-51.509 56.66z" fill="#ff8d95" data-original="#ff8d95" style="" class=""/><path d="m429.586 428.555c0 17.07-6.923 32.523-18.1 43.711-11.188 11.178-26.64 18.1-43.711 18.1-5.336 0-10.508-.68-15.453-1.947 10.858-2.792 20.562-8.468 28.258-16.153 11.177-11.188 18.1-26.64 18.1-43.711s-6.923-32.523-18.1-43.711c-7.695-7.685-17.4-13.361-28.258-16.153 4.945-1.267 10.116-1.947 15.453-1.947 17.07 0 32.523 6.923 43.711 18.1 11.177 11.189 18.1 26.641 18.1 43.711z" fill="#ff738a" data-original="#ff738a" style="" class=""/><path d="m434.742 488.42c-26.662-6.86-46.363-31.062-46.363-59.865 0-28.801 19.699-53.002 46.358-59.864 4.939-1.271 10.117 1.143 15.453 1.143 25.239 2.283 41.207 24.583 41.207 58.72-1.008 52.111-51.718 61.137-56.655 59.866z" fill="#ffc7ce" data-original="#ffc7ce" style="" class=""/><path d="m512 428.555c0 17.07-6.923 32.523-18.1 43.711-11.188 11.178-26.64 18.1-43.711 18.1-5.336 0-10.508-.68-15.453-1.947 10.858-2.792 20.562-8.468 28.258-16.153 11.177-11.188 18.1-26.64 18.1-43.711s-6.923-32.523-18.1-43.711c-7.695-7.685-17.4-13.361-28.258-16.153 4.945-1.267 10.116-1.947 15.453-1.947 17.07 0 32.523 6.923 43.711 18.1 11.177 11.189 18.1 26.641 18.1 43.711z" fill="#ffb3c0" data-original="#ffb3c0" style="" class=""/><g fill="#fcf1f2"><path d="m100.958 376.48v18.852l-17.348 12.156c-1.35.948-2.895 1.401-4.419 1.401-2.442 0-4.832-1.143-6.336-3.297-2.452-3.492-1.607-8.314 1.896-10.755z" fill="#fcf1f2" data-original="#fcf1f2" style="" class=""/><path d="m159.967 405.593c-1.504 2.153-3.894 3.297-6.336 3.297-1.525 0-3.07-.453-4.419-1.401l-17.348-12.156v-18.853l26.208 18.358c3.502 2.441 4.346 7.262 1.895 10.755z" fill="#fcf1f2" data-original="#fcf1f2" style="" class=""/><path d="m158.071 353.074-26.208 18.358v-18.863l17.348-12.146c3.492-2.452 8.314-1.607 10.755 1.896 2.452 3.492 1.608 8.313-1.895 10.755z" fill="#fcf1f2" data-original="#fcf1f2" style="" class=""/><path d="m100.958 352.569v18.863l-26.208-18.358c-3.503-2.442-4.347-7.263-1.896-10.755 2.442-3.503 7.263-4.347 10.755-1.896z" fill="#fcf1f2" data-original="#fcf1f2" style="" class=""/></g></g></g></svg>
